<svg id="Capa_1" data-name="Capa 1" xmlns="http://www.w3.org/2000/svg" viewBox="0 0 261 261"><defs><style>.cls-1{fill:#fff;}</style></defs><title>2Mesa de trabajo 1</title><path class="cls-1" d="M178.54,79.52h-8.43V77.45a3.77,3.77,0,0,0-7.53,0v2.07H152.19V77.45a3.77,3.77,0,0,0-7.53,0v2.07H134.27V77.45a3.77,3.77,0,0,0-7.54,0v2.07H116.34V77.45a3.77,3.77,0,0,0-7.53,0v2.07H98.42V77.45a3.77,3.77,0,0,0-7.53,0v2.07H82.46A16.24,16.24,0,0,0,66.23,95.74v75.35a16.24,16.24,0,0,0,16.23,16.22h96.08a16.24,16.24,0,0,0,16.23-16.22V95.74a16.24,16.24,0,0,0-16.23-16.22m8.7,91.57a8.7,8.7,0,0,1-8.7,8.69H82.46a8.7,8.7,0,0,1-8.7-8.69V109.5H187.24Zm0-69.12H73.76V95.74a8.7,8.7,0,0,1,8.7-8.69h8.43V88.5a3.77,3.77,0,1,0,7.53,0V87.05h10.39V88.5a3.77,3.77,0,1,0,7.53,0V87.05h10.39V88.5a3.77,3.77,0,1,0,7.54,0V87.05h10.39V88.5a3.77,3.77,0,1,0,7.53,0V87.05h10.39V88.5a3.77,3.77,0,1,0,7.53,0V87.05h8.43a8.7,8.7,0,0,1,8.7,8.69Z"/><path class="cls-1" d="M109.68,153.34H116V136.71c0-.82,0-1.67.07-2.56l-3.74,3.1a2.17,2.17,0,0,1-1.42.54,2.06,2.06,0,0,1-1.06-.26,2.35,2.35,0,0,1-.69-.55L107,134l10.27-8.62H123v27.92h5.43v5.07H109.68Z"/><path class="cls-1" d="M152.81,128.33a3.66,3.66,0,0,1-.22,1.32,2.79,2.79,0,0,1-.72,1,3.31,3.31,0,0,1-1.28.68,7,7,0,0,1-1.9.23h-7.87l-.93,5.46c.62-.11,1.22-.19,1.79-.24s1.13-.08,1.67-.08a12.35,12.35,0,0,1,4.6.79,9.87,9.87,0,0,1,3.35,2.16,9.11,9.11,0,0,1,2,3.22,11.16,11.16,0,0,1,.69,3.95,12.06,12.06,0,0,1-.94,4.83,11.05,11.05,0,0,1-2.61,3.76,11.76,11.76,0,0,1-4,2.46,14.37,14.37,0,0,1-5.08.87,13.31,13.31,0,0,1-3.07-.34,15,15,0,0,1-2.74-.92,13.84,13.84,0,0,1-2.36-1.33,15.19,15.19,0,0,1-2-1.62l2.17-2.89a2.37,2.37,0,0,1,.79-.7,2.21,2.21,0,0,1,1-.23,2.38,2.38,0,0,1,1.28.37l1.31.82a9.88,9.88,0,0,0,1.66.8,6.67,6.67,0,0,0,2.35.36,5.62,5.62,0,0,0,2.4-.46,4.2,4.2,0,0,0,1.62-1.27,5.15,5.15,0,0,0,.91-1.88,9.35,9.35,0,0,0,.28-2.3,4.71,4.71,0,0,0-1.36-3.65,5.44,5.44,0,0,0-3.85-1.26,11.75,11.75,0,0,0-4.34.84l-4.35-1.17,2.81-16.5h16.88Z"/></svg>