<svg id="Capa_1" data-name="Capa 1" xmlns="http://www.w3.org/2000/svg" viewBox="0 0 261 261"><defs><style>.cls-1{fill:#fff;}</style></defs><title>2Mesa de trabajo 1</title><path class="cls-1" d="M107.72,135.8a2.65,2.65,0,1,0-2.65-2.65,2.65,2.65,0,0,0,2.65,2.65"/><path class="cls-1" d="M190.36,66.94H91.83a8,8,0,0,0-7.94,7.94v39.73H70.64a8,8,0,0,0-7.94,7.94v63.57a8,8,0,0,0,7.94,7.94H166a8,8,0,0,0,7.95-7.94V146.39h16.42a8,8,0,0,0,7.94-7.94V74.88a8,8,0,0,0-7.94-7.94M89.18,88.12H193v10.6H89.18Zm2.65-15.89h98.53A2.65,2.65,0,0,1,193,74.88v8H89.18v-8a2.65,2.65,0,0,1,2.65-2.65m76.81,113.89a2.65,2.65,0,0,1-2.65,2.65H70.64A2.65,2.65,0,0,1,68,186.12V122.55a2.65,2.65,0,0,1,2.65-2.64H166a2.65,2.65,0,0,1,2.65,2.64Zm21.72-45H173.94V122.55a8,8,0,0,0-7.95-7.94H89.18V104H193v34.44a2.65,2.65,0,0,1-2.65,2.64"/><path class="cls-1" d="M155.4,130.5H128.91a2.65,2.65,0,0,0-2.65,2.65V149a2.65,2.65,0,0,0,2.65,2.65H155.4a2.65,2.65,0,0,0,2.65-2.65V133.15a2.65,2.65,0,0,0-2.65-2.65m-2.65,15.89H131.56V135.8h21.19Z"/><path class="cls-1" d="M91.83,172.88H81.24a2.65,2.65,0,1,0,0,5.29H91.83a2.65,2.65,0,1,0,0-5.29"/><path class="cls-1" d="M113,172.88H102.43a2.65,2.65,0,1,0,0,5.29H113a2.65,2.65,0,1,0,0-5.29"/><path class="cls-1" d="M134.21,172.88h-10.6a2.65,2.65,0,0,0,0,5.29h10.6a2.65,2.65,0,1,0,0-5.29"/><path class="cls-1" d="M155.4,172.88H144.8a2.65,2.65,0,1,0,0,5.29h10.6a2.65,2.65,0,0,0,0-5.29"/><path class="cls-1" d="M81.24,135.8H97.13a2.65,2.65,0,0,0,0-5.3H81.24a2.65,2.65,0,1,0,0,5.3"/><path class="cls-1" d="M81.24,146.39h26.48a2.65,2.65,0,0,0,0-5.3H81.24a2.65,2.65,0,0,0,0,5.3"/></svg>