<svg id="Capa_1" data-name="Capa 1" xmlns="http://www.w3.org/2000/svg" viewBox="0 0 161.67 81"><defs><style>.cls-1{fill:#e32545;}.cls-2{fill:#fff;}</style></defs><title>Mesa de trabajo 1</title><path class="cls-1" d="M30.25,63.76c-5.48-8-11.41-15.28-15.49-23.72-2.52-5.22-3.68-10.64-2.1-16.38C15.15,14.6,22.92,8.9,31.83,9.59c8.46.65,15.68,8.14,16.57,17.18A21.86,21.86,0,0,1,47,37c-3.88,9.84-10.75,17.8-16.74,26.74"/><path class="cls-2" d="M72.81,48.47c-2.13,3.83-4.26,7.65-6.71,12.07L59.59,48.3l-.66,0c0,4.39-.08,8.78,0,13.16C59,63.36,58.45,64,56.54,64s-2.49-.53-2.46-2.44c.1-6.86,0-13.73.07-20.59,0-1-.79-2.85,1.16-2.91,1.75-.06,3.91-1.06,5.12,1.46,1.73,3.58,3.66,7,5.75,11,2.08-3.81,4.12-7.13,5.74-10.64,1.21-2.61,3.31-2.1,5.22-1.89,2.09.24,1.09,2.14,1.1,3.25.1,6.76,0,13.53.09,20.28,0,1.93-.59,2.4-2.44,2.44s-2.45-.67-2.4-2.48c.1-4.27,0-8.55,0-12.82l-.71-.21"/><path class="cls-2" d="M53.22,22.88c.24-5.67,2.69-10,8-12.42A12.62,12.62,0,0,1,74.71,12.8c1.69,1.51,1.08,2.36-.1,3.71s-1.93,1.38-3.31.06c-3.25-3.07-7.66-2.8-10.72.38a8.54,8.54,0,0,0,0,11.93c3.07,3.17,7.54,3.46,10.71.39,1.5-1.45,2.2-1.31,3.59.09s1.21,2.42-.18,3.71A12.33,12.33,0,0,1,61.2,35.38c-5.31-2.43-7.77-6.74-8-12.5"/><path class="cls-2" d="M133.77,22.25c0-3.69.08-7.39,0-11.08,0-1.8.66-2.21,2.35-2.23s2.41.65,2.21,2.34a12.56,12.56,0,0,0,0,1.84c0,1.33-.43,3,.23,3.9.88,1.14,2.33-.39,3.59-.48a6.65,6.65,0,0,1,7.45,6.18c.3,3.87.08,7.78.15,11.68,0,1.8-1.21,1.56-2.32,1.58s-2.32.13-2.3-1.62c0-3.28,0-6.56,0-9.84-.06-2.46-1.33-3.88-3.91-3.64-1.81.17-3,.93-2.91,3.14.16,3.27-.05,6.57.08,9.84.07,1.89-.8,2.17-2.41,2.17s-2.21-.44-2.17-2.09c.09-3.9,0-7.8,0-11.69"/><path class="cls-2" d="M115.36,26.72c.08-3.91,1.52-7.07,5-9a8.73,8.73,0,0,1,9.36.34c.92.58,2.53,1.29,1.08,2.77-.88.9-1.44,2.87-3.54,1.09s-4.26-1.07-6,.9a5.78,5.78,0,0,0,.21,7.59c1.84,1.93,4,2.27,6,.48,2.13-2,2.58.34,3.5,1.14,1.45,1.24,0,2-.79,2.59a8.91,8.91,0,0,1-9.61.81c-3.54-1.8-5-4.93-5.22-8.72"/><path class="cls-2" d="M19.68,42.45c2.51-2.3,1.53-4.21.21-6.46-4.83-8.22.22-19.1,9.09-19.87A12.31,12.31,0,0,1,42.16,26.17C43.6,33,40,40,33.66,41.61a38.9,38.9,0,0,1-14,.84"/><path class="cls-1" d="M30.25,63.76c-5.48-8-11.41-15.28-15.49-23.72-2.52-5.22-3.68-10.64-2.1-16.38C15.15,14.6,22.92,8.9,31.83,9.59c8.46.65,15.68,8.14,16.57,17.18A21.86,21.86,0,0,1,47,37c-3.88,9.84-10.75,17.8-16.74,26.74"/><path class="cls-2" d="M72.81,48.47c-2.13,3.83-4.26,7.65-6.71,12.07L59.59,48.3l-.66,0c0,4.39-.08,8.78,0,13.16C59,63.36,58.45,64,56.54,64s-2.49-.53-2.46-2.44c.1-6.86,0-13.73.07-20.59,0-1-.79-2.85,1.16-2.91,1.75-.06,3.91-1.06,5.12,1.46,1.73,3.58,3.66,7,5.75,11,2.08-3.81,4.12-7.13,5.74-10.64,1.21-2.61,3.31-2.1,5.22-1.89,2.09.24,1.09,2.14,1.1,3.25.1,6.76,0,13.53.09,20.28,0,1.93-.59,2.4-2.44,2.44s-2.45-.67-2.4-2.48c.1-4.27,0-8.55,0-12.82l-.71-.21"/><path class="cls-2" d="M53.22,22.88c.24-5.67,2.69-10,8-12.42A12.62,12.62,0,0,1,74.71,12.8c1.69,1.51,1.08,2.36-.1,3.71s-1.93,1.38-3.31.06c-3.25-3.07-7.66-2.8-10.72.38a8.54,8.54,0,0,0,0,11.93c3.07,3.17,7.54,3.46,10.71.39,1.5-1.45,2.2-1.31,3.59.09s1.21,2.42-.18,3.71A12.33,12.33,0,0,1,61.2,35.38c-5.31-2.43-7.77-6.74-8-12.5"/><path class="cls-2" d="M133.77,22.25c0-3.69.08-7.39,0-11.08,0-1.8.66-2.21,2.35-2.23s2.41.65,2.21,2.34a12.56,12.56,0,0,0,0,1.84c0,1.33-.43,3,.23,3.9.88,1.14,2.33-.39,3.59-.48a6.65,6.65,0,0,1,7.45,6.18c.3,3.87.08,7.78.15,11.68,0,1.8-1.21,1.56-2.32,1.58s-2.32.13-2.3-1.62c0-3.28,0-6.56,0-9.84-.06-2.46-1.33-3.88-3.91-3.64-1.81.17-3,.93-2.91,3.14.16,3.27-.05,6.57.08,9.84.07,1.89-.8,2.17-2.41,2.17s-2.21-.44-2.17-2.09c.09-3.9,0-7.8,0-11.69"/><path class="cls-2" d="M115.36,26.72c.08-3.91,1.52-7.07,5-9a8.73,8.73,0,0,1,9.36.34c.92.58,2.53,1.29,1.08,2.77-.88.9-1.44,2.87-3.54,1.09s-4.26-1.07-6,.9a5.78,5.78,0,0,0,.21,7.59c1.84,1.93,4,2.27,6,.48,2.13-2,2.58.34,3.5,1.14,1.45,1.24,0,2-.79,2.59a8.91,8.91,0,0,1-9.61.81c-3.54-1.8-5-4.93-5.22-8.72"/><path class="cls-2" d="M19.68,42.45c2.51-2.3,1.53-4.21.21-6.46-4.83-8.22.22-19.1,9.09-19.87A12.31,12.31,0,0,1,42.16,26.17C43.6,33,40,40,33.66,41.61a38.9,38.9,0,0,1-14,.84"/><path class="cls-2" d="M86.77,16.61c-5.22,0-9.31,4.21-9.38,9.71C77.31,32,81.32,36.4,86.66,36.41s9.32-4.17,9.39-9.69C96.12,21,92.1,16.63,86.77,16.61Zm0,15.4c-2.71,0-4.9-2.47-4.86-5.59S84,21.06,86.64,21s4.9,2.43,4.86,5.56S89.37,32,86.77,32Z"/><path class="cls-2" d="M112.88,30.55c.05-.51,0-1,0-1.53h-.07c0-1.53.07-3.07,0-4.6-.36-6.84-6.69-10.08-12.58-6.4-.82.51-2.47,1-1.36,2.43.76,1,1.47,2.49,3.42,1.2a3.85,3.85,0,0,1,5.31.59c.41.45.8,1.1.43,1.66-.19.29-.9.33-1.37.34a12.58,12.58,0,0,0-5.42,1,6,6,0,0,0-3.38,7.12c.65,2.68,2.92,4.27,6.06,4.06,1.3-.08,2.62-.88,3.87-.75,1.6.17,3.55,1,4.63,0S112.74,32.26,112.88,30.55ZM105,32.31c-1.55,0-2.8-.51-2.68-2,.18-2.32,2.12-2.34,3.88-2.42,1.17-.05,2.18-.11,2.16,1.64C108.34,32.07,106.47,32,105,32.31Z"/><path class="cls-2" d="M107.19,44.73a19.39,19.39,0,0,1-5.37.31c-1.9-.28-2.48.51-2.46,2.39.09,7.37.08,14.74,0,22.1,0,1.78.4,2.53,2.39,2.53s2.38-.9,2.28-2.6,0-3.66,0-5.76c6.67,1.65,11.08-1,12.19-7.08C117.38,50.27,112.73,44,107.19,44.73Zm2.42,14.5a4.08,4.08,0,0,1-4.36.44C103.77,59,104,57.74,104,56.52s0-2.25,0-3.38c0-1.85-.35-3.85,2.36-4.12a4.44,4.44,0,0,1,5,3.21,6.26,6.26,0,0,1,.32,1.73C111.7,56.5,111.09,58.08,109.61,59.23Z"/><path class="cls-2" d="M96.3,58.18c0-.41,0-.82,0-1.23h0c0-1.43,0-2.86,0-4.29-.26-6.91-6.36-10.25-12.38-6.75-.86.5-2.46,1-1.66,2.35.68,1.2,1.56,2.71,3.61,1.33a3.89,3.89,0,0,1,4.87.3c.55.46,1.09,1,.78,1.84s-1,.51-1.61.52a12.23,12.23,0,0,0-5.11.92,5.93,5.93,0,0,0-3.48,7.07c.63,2.72,2.8,4.18,6,4.17,1.37,0,2.6-.69,3.89-.77,1.66-.09,3.86,1.17,4.83-.36C96.81,62,96.26,59.91,96.3,58.18Zm-4.52-.33c-.1,2.41-2.09,2-3.17,2.45-1.76,0-3-.56-2.85-2C86.05,55.8,88.2,56,90,55.8,91.66,55.62,91.83,56.57,91.78,57.85Z"/></svg>