<svg id="Capa_1" data-name="Capa 1" xmlns="http://www.w3.org/2000/svg" viewBox="0 0 261 261"><defs><style>.cls-1{fill:#fff;}</style></defs><title>Mesa de trabajo 1</title><path class="cls-1" d="M174.69,146.78a31.54,31.54,0,0,0,0-63.07h-66a2.23,2.23,0,0,0,0,4.45h66a27.09,27.09,0,1,1,0,54.17H86.31a27.09,27.09,0,1,1,0-54.17H99.79a2.23,2.23,0,0,0,0-4.45H86.31a31.54,31.54,0,0,0,0,63.07h32.56v9H87A2.22,2.22,0,0,0,84.76,158v8.14a11.12,11.12,0,0,0,11.11,11.11h20.77a2.23,2.23,0,1,0,0-4.45H95.87a6.68,6.68,0,0,1-6.67-6.66v-5.92h82.59v5.92a6.67,6.67,0,0,1-6.66,6.66h-39.6a2.23,2.23,0,0,0,0,4.45h39.6a11.13,11.13,0,0,0,11.11-11.11V158a2.23,2.23,0,0,0-2.22-2.22H142.13v-9Zm-37,9H123.31v-9h14.38Z"/><path class="cls-1" d="M174.69,146.78a31.54,31.54,0,0,0,0-63.07h-66a2.23,2.23,0,0,0,0,4.45h66a27.09,27.09,0,1,1,0,54.17H86.31a27.09,27.09,0,1,1,0-54.17H99.79a2.23,2.23,0,0,0,0-4.45H86.31a31.54,31.54,0,0,0,0,63.07h32.56v9H87A2.22,2.22,0,0,0,84.76,158v8.14a11.12,11.12,0,0,0,11.11,11.11h20.77a2.23,2.23,0,1,0,0-4.45H95.87a6.68,6.68,0,0,1-6.67-6.66v-5.92h82.59v5.92a6.67,6.67,0,0,1-6.66,6.66h-39.6a2.23,2.23,0,0,0,0,4.45h39.6a11.13,11.13,0,0,0,11.11-11.11V158a2.23,2.23,0,0,0-2.22-2.22H142.13v-9Zm-37,9H123.31v-9h14.38Z"/><path class="cls-1" d="M120.66,115.24a9.84,9.84,0,1,0,9.84-9.84,9.85,9.85,0,0,0-9.84,9.84m15.23,0a5.4,5.4,0,1,1-5.39-5.39,5.4,5.4,0,0,1,5.39,5.39"/><path class="cls-1" d="M120.66,115.24a9.84,9.84,0,1,0,9.84-9.84A9.85,9.85,0,0,0,120.66,115.24Zm15.23,0a5.4,5.4,0,1,1-5.39-5.39A5.4,5.4,0,0,1,135.89,115.24Z"/><path class="cls-1" d="M147.36,127.22a2.23,2.23,0,0,0,3-.85,22.83,22.83,0,1,0-6.56,7.35,2.22,2.22,0,1,0-2.6-3.6,18.31,18.31,0,1,1,5.28-5.92,2.22,2.22,0,0,0,.85,3"/><path class="cls-1" d="M147.36,127.22a2.23,2.23,0,0,0,3-.85,22.83,22.83,0,1,0-6.56,7.35,2.22,2.22,0,1,0-2.6-3.6,18.31,18.31,0,1,1,5.28-5.92A2.22,2.22,0,0,0,147.36,127.22Z"/><path class="cls-1" d="M93.71,113a2.23,2.23,0,0,0,0,4.45h5a2.23,2.23,0,1,0,0-4.45Z"/><path class="cls-1" d="M93.71,113a2.23,2.23,0,0,0,0,4.45h5a2.23,2.23,0,1,0,0-4.45Z"/><path class="cls-1" d="M167.29,117.47a2.23,2.23,0,0,0,0-4.45h-5a2.23,2.23,0,1,0,0,4.45Z"/><path class="cls-1" d="M167.29,117.47a2.23,2.23,0,0,0,0-4.45h-5a2.23,2.23,0,1,0,0,4.45Z"/><path class="cls-1" d="M182.27,117.47a2.23,2.23,0,0,0,0-4.45h-5a2.23,2.23,0,1,0,0,4.45Z"/><path class="cls-1" d="M182.27,117.47a2.23,2.23,0,0,0,0-4.45h-5a2.23,2.23,0,1,0,0,4.45Z"/></svg>